<svg xmlns="http://www.w3.org/2000/svg" xmlns:xlink="http://www.w3.org/1999/xlink" contentStyleType="text/css" height="769px" preserveAspectRatio="none" style="width:403px;height:769px;background:#FFFFFF;" version="1.1" viewBox="0 0 403 769" width="403px" zoomAndPan="magnify"><defs/><g><ellipse cx="168.2202" cy="20" fill="#222222" rx="10" ry="10" style="stroke:#222222;stroke-width:1.0;"/><rect fill="#F1F1F1" height="35.0938" rx="12.5" ry="12.5" style="stroke:#181818;stroke-width:0.5;" width="114.0254" x="111.2075" y="50"/><text fill="#000000" font-family="sans-serif" font-size="12" lengthAdjust="spacing" textLength="94.0254" x="121.2075" y="72.457">start workflow run</text><polygon fill="#F1F1F1" points="105.5342,160.1875,230.9063,160.1875,242.9063,172.1875,230.9063,184.1875,105.5342,184.1875,93.5342,172.1875,105.5342,160.1875" style="stroke:#181818;stroke-width:0.5;"/><text fill="#000000" font-family="sans-serif" font-size="11" lengthAdjust="spacing" textLength="125.3721" x="105.5342" y="176.6885">agent-bearing behaviour?</text><text fill="#000000" font-family="sans-serif" font-size="11" lengthAdjust="spacing" textLength="17.1177" x="76.4165" y="169.7705">yes</text><text fill="#000000" font-family="sans-serif" font-size="11" lengthAdjust="spacing" textLength="122.9229" x="242.9063" y="169.7705">no - non-agent behaviour</text><rect fill="#F1F1F1" height="50.1875" rx="12.5" ry="12.5" style="stroke:#181818;stroke-width:0.5;" width="135.3945" x="15.8369" y="194.1875"/><text fill="#000000" font-family="sans-serif" font-size="12" lengthAdjust="spacing" textLength="102.7207" x="25.8369" y="216.6445">invoke agent (LLM)</text><text fill="#000000" font-family="sans-serif" font-size="12" lengthAdjust="spacing" textLength="115.3945" x="25.8369" y="231.7383">and parse commands</text><rect fill="#F1F1F1" height="50.1875" rx="12.5" ry="12.5" style="stroke:#181818;stroke-width:0.5;" width="145.0684" x="11" y="313.293"/><text fill="#000000" font-family="sans-serif" font-size="12" lengthAdjust="spacing" textLength="94.0605" x="21" y="335.75">governed tool call</text><text fill="#000000" font-family="sans-serif" font-size="12" lengthAdjust="spacing" textLength="125.0684" x="21" y="350.8438">(policy + approval gate)</text><polygon fill="#F1F1F1" points="45.9312,264.375,121.1372,264.375,133.1372,276.375,121.1372,288.375,45.9312,288.375,33.9312,276.375,45.9312,264.375" style="stroke:#181818;stroke-width:0.5;"/><text fill="#000000" font-family="sans-serif" font-size="11" lengthAdjust="spacing" textLength="17.1177" x="87.5342" y="299.7939">yes</text><text fill="#000000" font-family="sans-serif" font-size="11" lengthAdjust="spacing" textLength="75.2061" x="45.9312" y="280.876">tool command?</text><text fill="#000000" font-family="sans-serif" font-size="11" lengthAdjust="spacing" textLength="12.2354" x="133.1372" y="273.958">no</text><polygon fill="#F1F1F1" points="83.5342,385.6719,95.5342,397.6719,83.5342,409.6719,71.5342,397.6719,83.5342,385.6719" style="stroke:#181818;stroke-width:0.5;"/><rect fill="#F1F1F1" height="50.1875" rx="12.5" ry="12.5" style="stroke:#181818;stroke-width:0.5;" width="93.3828" x="206.2148" y="194.1875"/><text fill="#000000" font-family="sans-serif" font-size="12" lengthAdjust="spacing" textLength="73.3828" x="216.2148" y="216.6445">run behaviour</text><text fill="#000000" font-family="sans-serif" font-size="12" lengthAdjust="spacing" textLength="69.3574" x="216.2148" y="231.7383">(no LLM call)</text><polygon fill="#F1F1F1" points="168.2202,415.6719,180.2202,427.6719,168.2202,439.6719,156.2202,427.6719,168.2202,415.6719" style="stroke:#181818;stroke-width:0.5;"/><rect fill="#F1F1F1" height="50.1875" rx="12.5" ry="12.5" style="stroke:#181818;stroke-width:0.5;" width="294.7051" x="20.8677" y="459.6719"/><text fill="#000000" font-family="sans-serif" font-size="12" lengthAdjust="spacing" textLength="75.3809" x="30.8677" y="482.1289">transition gate</text><text fill="#000000" font-family="sans-serif" font-size="12" lengthAdjust="spacing" textLength="274.7051" x="30.8677" y="497.2227">(AUTO / HUMAN_REVIEW / HUMAN_APPROVAL)</text><rect fill="#F1F1F1" height="50.1875" rx="12.5" ry="12.5" style="stroke:#181818;stroke-width:0.5;" width="91.7012" x="122.3696" y="529.8594"/><text fill="#000000" font-family="sans-serif" font-size="12" lengthAdjust="spacing" textLength="64.6934" x="132.3696" y="552.3164">persist state</text><text fill="#000000" font-family="sans-serif" font-size="12" lengthAdjust="spacing" textLength="71.7012" x="132.3696" y="567.4102">+ emit events</text><rect fill="#F1F1F1" height="35.0938" rx="12.5" ry="12.5" style="stroke:#181818;stroke-width:0.5;" width="177.0957" x="79.6724" y="105.0938"/><text fill="#000000" font-family="sans-serif" font-size="12" lengthAdjust="spacing" textLength="157.0957" x="89.6724" y="127.5508">resolve next step + behaviour</text><polygon fill="#F1F1F1" points="137.9568,600.0469,198.4836,600.0469,210.4836,612.0469,198.4836,624.0469,137.9568,624.0469,125.9568,612.0469,137.9568,600.0469" style="stroke:#181818;stroke-width:0.5;"/><text fill="#000000" font-family="sans-serif" font-size="11" lengthAdjust="spacing" textLength="60.5269" x="137.9568" y="616.5479">more steps?</text><text fill="#000000" font-family="sans-serif" font-size="11" lengthAdjust="spacing" textLength="17.1177" x="210.4836" y="609.6299">yes</text><rect fill="#F1F1F1" height="50.1875" rx="12.5" ry="12.5" style="stroke:#181818;stroke-width:0.5;" width="236.709" x="49.8657" y="666.2998"/><text fill="#000000" font-family="sans-serif" font-size="12" lengthAdjust="spacing" textLength="72.0293" x="59.8657" y="688.7568">terminal state</text><text fill="#000000" font-family="sans-serif" font-size="12" lengthAdjust="spacing" textLength="216.709" x="59.8657" y="703.8506">(COMPLETED / FAILED / CANCELLED)</text><ellipse cx="168.2202" cy="747.4873" fill="none" rx="11" ry="11" style="stroke:#222222;stroke-width:1.0;"/><ellipse cx="168.2202" cy="747.4873" fill="#222222" rx="6" ry="6" style="stroke:#222222;stroke-width:1.0;"/><line style="stroke:#181818;stroke-width:1.0;" x1="168.2202" x2="168.2202" y1="30" y2="50"/><polygon fill="#181818" points="164.2202,40,168.2202,50,172.2202,40,168.2202,44" style="stroke:#181818;stroke-width:1.0;"/><line style="stroke:#181818;stroke-width:1.0;" x1="83.5342" x2="83.5342" y1="288.375" y2="313.293"/><polygon fill="#181818" points="79.5342,303.293,83.5342,313.293,87.5342,303.293,83.5342,307.293" style="stroke:#181818;stroke-width:1.0;"/><line style="stroke:#181818;stroke-width:1.0;" x1="133.1372" x2="166.0684" y1="276.375" y2="276.375"/><polygon fill="#181818" points="162.0684,328.3867,166.0684,338.3867,170.0684,328.3867,166.0684,332.3867" style="stroke:#181818;stroke-width:1.0;"/><line style="stroke:#181818;stroke-width:1.0;" x1="166.0684" x2="166.0684" y1="276.375" y2="397.6719"/><line style="stroke:#181818;stroke-width:1.0;" x1="166.0684" x2="95.5342" y1="397.6719" y2="397.6719"/><polygon fill="#181818" points="105.5342,393.6719,95.5342,397.6719,105.5342,401.6719,101.5342,397.6719" style="stroke:#181818;stroke-width:1.0;"/><line style="stroke:#181818;stroke-width:1.0;" x1="83.5342" x2="83.5342" y1="363.4805" y2="385.6719"/><polygon fill="#181818" points="79.5342,375.6719,83.5342,385.6719,87.5342,375.6719,83.5342,379.6719" style="stroke:#181818;stroke-width:1.0;"/><line style="stroke:#181818;stroke-width:1.0;" x1="83.5342" x2="83.5342" y1="244.375" y2="264.375"/><polygon fill="#181818" points="79.5342,254.375,83.5342,264.375,87.5342,254.375,83.5342,258.375" style="stroke:#181818;stroke-width:1.0;"/><line style="stroke:#181818;stroke-width:1.0;" x1="93.5342" x2="83.5342" y1="172.1875" y2="172.1875"/><line style="stroke:#181818;stroke-width:1.0;" x1="83.5342" x2="83.5342" y1="172.1875" y2="194.1875"/><polygon fill="#181818" points="79.5342,184.1875,83.5342,194.1875,87.5342,184.1875,83.5342,188.1875" style="stroke:#181818;stroke-width:1.0;"/><line style="stroke:#181818;stroke-width:1.0;" x1="242.9063" x2="252.9063" y1="172.1875" y2="172.1875"/><line style="stroke:#181818;stroke-width:1.0;" x1="252.9063" x2="252.9063" y1="172.1875" y2="194.1875"/><polygon fill="#181818" points="248.9063,184.1875,252.9063,194.1875,256.9063,184.1875,252.9063,188.1875" style="stroke:#181818;stroke-width:1.0;"/><line style="stroke:#181818;stroke-width:1.0;" x1="83.5342" x2="83.5342" y1="409.6719" y2="427.6719"/><line style="stroke:#181818;stroke-width:1.0;" x1="83.5342" x2="156.2202" y1="427.6719" y2="427.6719"/><polygon fill="#181818" points="146.2202,423.6719,156.2202,427.6719,146.2202,431.6719,150.2202,427.6719" style="stroke:#181818;stroke-width:1.0;"/><line style="stroke:#181818;stroke-width:1.0;" x1="252.9063" x2="252.9063" y1="244.375" y2="427.6719"/><line style="stroke:#181818;stroke-width:1.0;" x1="252.9063" x2="180.2202" y1="427.6719" y2="427.6719"/><polygon fill="#181818" points="190.2202,423.6719,180.2202,427.6719,190.2202,431.6719,186.2202,427.6719" style="stroke:#181818;stroke-width:1.0;"/><line style="stroke:#181818;stroke-width:1.0;" x1="168.2202" x2="168.2202" y1="439.6719" y2="459.6719"/><polygon fill="#181818" points="164.2202,449.6719,168.2202,459.6719,172.2202,449.6719,168.2202,453.6719" style="stroke:#181818;stroke-width:1.0;"/><line style="stroke:#181818;stroke-width:1.0;" x1="168.2202" x2="168.2202" y1="509.8594" y2="529.8594"/><polygon fill="#181818" points="164.2202,519.8594,168.2202,529.8594,172.2202,519.8594,168.2202,523.8594" style="stroke:#181818;stroke-width:1.0;"/><line style="stroke:#181818;stroke-width:1.0;" x1="168.2202" x2="168.2202" y1="140.1875" y2="160.1875"/><polygon fill="#181818" points="164.2202,150.1875,168.2202,160.1875,172.2202,150.1875,168.2202,154.1875" style="stroke:#181818;stroke-width:1.0;"/><line style="stroke:#181818;stroke-width:1.0;" x1="210.4836" x2="377.8291" y1="612.0469" y2="612.0469"/><polygon fill="#181818" points="373.8291,383.4805,377.8291,373.4805,381.8291,383.4805,377.8291,379.4805" style="stroke:#181818;stroke-width:1.0;"/><line style="stroke:#181818;stroke-width:1.0;" x1="377.8291" x2="377.8291" y1="122.6406" y2="612.0469"/><line style="stroke:#181818;stroke-width:1.0;" x1="377.8291" x2="256.7681" y1="122.6406" y2="122.6406"/><polygon fill="#181818" points="266.7681,118.6406,256.7681,122.6406,266.7681,126.6406,262.7681,122.6406" style="stroke:#181818;stroke-width:1.0;"/><line style="stroke:#181818;stroke-width:1.0;" x1="168.2202" x2="168.2202" y1="580.0469" y2="600.0469"/><polygon fill="#181818" points="164.2202,590.0469,168.2202,600.0469,172.2202,590.0469,168.2202,594.0469" style="stroke:#181818;stroke-width:1.0;"/><line style="stroke:#181818;stroke-width:1.0;" x1="168.2202" x2="168.2202" y1="85.0938" y2="105.0938"/><polygon fill="#181818" points="164.2202,95.0938,168.2202,105.0938,172.2202,95.0938,168.2202,99.0938" style="stroke:#181818;stroke-width:1.0;"/><line style="stroke:#181818;stroke-width:1.0;" x1="168.2202" x2="168.2202" y1="624.0469" y2="666.2998"/><polygon fill="#181818" points="164.2202,656.2998,168.2202,666.2998,172.2202,656.2998,168.2202,660.2998" style="stroke:#181818;stroke-width:1.0;"/><text fill="#000000" font-family="sans-serif" font-size="11" lengthAdjust="spacing" textLength="12.2354" x="172.2202" y="646.3828">no</text><line style="stroke:#181818;stroke-width:1.0;" x1="168.2202" x2="168.2202" y1="716.4873" y2="736.4873"/><polygon fill="#181818" points="164.2202,726.4873,168.2202,736.4873,172.2202,726.4873,168.2202,730.4873" style="stroke:#181818;stroke-width:1.0;"/><!--SRC=[hLFBRjim4BphA_OM6QcID2XIG4PR28c22f0Vi9tq4g2WgRNCcY89afQZdFeH_S9-IPTox2Qzz182WYXgEJixitlowKrNT08tWjMMDG0fpBRAYmOXVqI-zK8hcBHeMu4xY6TvTZFAWUl6C4M_1dJr7gqBKNIrlGnGp2E4bSBbnULLSd6LlFz8vzcs4gWuXXHxc7EeD7TWaLM40Rz__WA_HcYOK2352dd79Ru3fJqWKUXWYMlM2hsrPuItwCmXpxmOJSlYjiXlO9GLumKzjBsUZARPk9YCGQ_0xgjAy51LmjUKvyni6ndGNgo9GX0LiXJMUWSCTjfkLfAsX06iQXaLuI1cgYAwpB_WvpoQrrYSIUdwgifoD0Y9vaIVOq-RrQZyIjiQF_n8dWb2B4MBuFge0Pp-Z_WRTuBR26LOw0J3-8O8pdqdaIpYdgbQuei0BfbpcVTMBBSU2wxLN3mXN4Hh4W-mCRw31fibMHj5pZFhexH_lH9q65aqI2gc5fsMLBh2HzyhISKV3Hz6OaMI1y6I9J8hLFttvvT1K5X1tA4RHAIiKAtUu5vVY8Fo3ohOHSGTXkvjwCiDAJIWUgtbuV1VA0AhDNchaCpkuyZG1nKRBGNlY24pnkgMIQYfxGS14YNbY9KErr5LOXKTJY2XNb79djQHVSyujDRnXF0fc6ZtsGXq3vDwovGJ_KY6R1IMtIqcD4PVxqRP-Fiilo_oRyVFR3gTJUwpakwd9ioe2xBszqx97j4thVBkwC1kBSZgkD4MU_qTYI7SinJ9PwK9oADjXA9odv7YC6Hblg1nEuVRh2ZxpNKslivBsbDkvxM9_W00]--></g></svg>