<svg xmlns="http://www.w3.org/2000/svg" xmlns:xlink="http://www.w3.org/1999/xlink" contentStyleType="text/css" data-diagram-type="DESCRIPTION" height="418px" preserveAspectRatio="none" style="width:291px;height:418px;background:#FFFFFF;" version="1.1" viewBox="0 0 291 418" width="291px" zoomAndPan="magnify"><?plantuml 1.2026.6?><defs/><g><!--entity starter--><g class="entity" data-qualified-name="starter" data-source-line="21" id="ent0001"><rect fill="#F1F1F1" height="37.6094" rx="2.5" ry="2.5" style="stroke:#181818;stroke-width:0.5;" width="139.0615" x="88.5" y="7"/><text fill="#000000" font-family="sans-serif" font-size="14" lengthAdjust="spacing" textLength="119.0615" x="98.5" y="31.5332">Spring Boot Starter</text></g><!--entity bootstrap--><g class="entity" data-qualified-name="bootstrap" data-source-line="22" id="ent0002"><rect fill="#F1F1F1" height="37.6094" rx="2.5" ry="2.5" style="stroke:#181818;stroke-width:0.5;" width="79.9238" x="118" y="79"/><text fill="#000000" font-family="sans-serif" font-size="14" lengthAdjust="spacing" textLength="59.9238" x="128" y="103.5332">Bootstrap</text></g><!--entity runtime--><g class="entity" data-qualified-name="runtime" data-source-line="23" id="ent0003"><rect fill="#F1F1F1" height="37.6094" rx="2.5" ry="2.5" style="stroke:#181818;stroke-width:0.5;" width="72.1309" x="122" y="151"/><text fill="#000000" font-family="sans-serif" font-size="14" lengthAdjust="spacing" textLength="52.1309" x="132" y="175.5332">Runtime</text></g><!--entity config--><g class="entity" data-qualified-name="config" data-source-line="24" id="ent0004"><rect fill="#F1F1F1" height="37.6094" rx="2.5" ry="2.5" style="stroke:#181818;stroke-width:0.5;" width="107.9512" x="7" y="223"/><text fill="#000000" font-family="sans-serif" font-size="14" lengthAdjust="spacing" textLength="87.9512" x="17" y="247.5332">Config Loader</text></g><!--entity core--><g class="entity" data-qualified-name="core" data-source-line="25" id="ent0005"><rect fill="#F1F1F1" height="37.6094" rx="2.5" ry="2.5" style="stroke:#181818;stroke-width:0.5;" width="50.3447" x="78" y="295"/><text fill="#000000" font-family="sans-serif" font-size="14" lengthAdjust="spacing" textLength="30.3447" x="88" y="319.5332">Core</text></g><!--entity llm--><g class="entity" data-qualified-name="llm" data-source-line="26" id="ent0006"><rect fill="#F1F1F1" height="37.6094" rx="2.5" ry="2.5" style="stroke:#181818;stroke-width:0.5;" width="73.6895" x="201" y="223"/><text fill="#000000" font-family="sans-serif" font-size="14" lengthAdjust="spacing" textLength="53.6895" x="211" y="247.5332">LLM API</text></g><!--entity tools--><g class="entity" data-qualified-name="tools" data-source-line="27" id="ent0007"><rect fill="#F1F1F1" height="37.6094" rx="2.5" ry="2.5" style="stroke:#181818;stroke-width:0.5;" width="97.0137" x="54.5" y="367"/><text fill="#000000" font-family="sans-serif" font-size="14" lengthAdjust="spacing" textLength="77.0137" x="64.5" y="391.5332">Tools / MCP</text></g><!--entity providers--><g class="entity" data-qualified-name="providers" data-source-line="28" id="ent0008"><rect fill="#F1F1F1" height="37.6094" rx="2.5" ry="2.5" style="stroke:#181818;stroke-width:0.5;" width="79.1309" x="198.5" y="295"/><text fill="#000000" font-family="sans-serif" font-size="14" lengthAdjust="spacing" textLength="59.1309" x="208.5" y="319.5332">Providers</text></g><!--link starter to bootstrap--><g class="link" data-entity-1="ent0001" data-entity-2="ent0002" data-link-type="dependency" data-source-line="30" id="lnk9"><path d="M158,45.29 C158,55.63 158,63.31 158,73.65" fill="none" id="starter-to-bootstrap" style="stroke:#181818;stroke-width:1;"/><polygon fill="#181818" points="158,78.65,162,69.65,158,73.65,154,69.65,158,78.65" style="stroke:#181818;stroke-width:1;stroke-linejoin:miter;stroke-miterlimit:10;"/></g><!--link bootstrap to runtime--><g class="link" data-entity-1="ent0002" data-entity-2="ent0003" data-link-type="dependency" data-source-line="31" id="lnk10"><path d="M158,117.29 C158,127.63 158,135.31 158,145.65" fill="none" id="bootstrap-to-runtime" style="stroke:#181818;stroke-width:1;"/><polygon fill="#181818" points="158,150.65,162,141.65,158,145.65,154,141.65,158,150.65" style="stroke:#181818;stroke-width:1;stroke-linejoin:miter;stroke-miterlimit:10;"/></g><!--link runtime to config--><g class="link" data-entity-1="ent0003" data-entity-2="ent0004" data-link-type="dependency" data-source-line="32" id="lnk11"><path d="M121.74,170 C110.86,170 101.75,170 101.75,170 C101.75,170 101.75,196.38 101.75,217.71" fill="none" id="runtime-to-config" style="stroke:#181818;stroke-width:1;"/><polygon fill="#181818" points="101.75,222.71,105.75,213.71,101.75,217.71,97.75,213.71,101.75,222.71" style="stroke:#181818;stroke-width:1;stroke-linejoin:miter;stroke-miterlimit:10;"/></g><!--link config to core--><g class="link" data-entity-1="ent0004" data-entity-2="ent0005" data-link-type="dependency" data-source-line="33" id="lnk12"><path d="M96.5,261.29 C96.5,271.63 96.5,279.31 96.5,289.65" fill="none" id="config-to-core" style="stroke:#181818;stroke-width:1;"/><polygon fill="#181818" points="96.5,294.65,100.5,285.65,96.5,289.65,92.5,285.65,96.5,294.65" style="stroke:#181818;stroke-width:1;stroke-linejoin:miter;stroke-miterlimit:10;"/></g><!--link runtime to core--><g class="link" data-entity-1="ent0003" data-entity-2="ent0005" data-link-type="dependency" data-source-line="34" id="lnk13"><path d="M139.75,189.12 C139.75,228.29 139.75,314 139.75,314 C139.75,314 139.58,314 133.12,314" fill="none" id="runtime-to-core" style="stroke:#181818;stroke-width:1;"/><polygon fill="#181818" points="128.12,314,137.12,318,133.12,314,137.12,310,128.12,314" style="stroke:#181818;stroke-width:1;stroke-linejoin:miter;stroke-miterlimit:10;"/></g><!--link runtime to llm--><g class="link" data-entity-1="ent0003" data-entity-2="ent0006" data-link-type="dependency" data-source-line="35" id="lnk14"><path d="M194.26,170 C205.14,170 214.25,170 214.25,170 C214.25,170 214.25,196.38 214.25,217.71" fill="none" id="runtime-to-llm" style="stroke:#181818;stroke-width:1;"/><polygon fill="#181818" points="214.25,222.71,218.25,213.71,214.25,217.71,210.25,213.71,214.25,222.71" style="stroke:#181818;stroke-width:1;stroke-linejoin:miter;stroke-miterlimit:10;"/></g><!--link tools to core--><g class="link" data-entity-1="ent0007" data-entity-2="ent0005" data-link-type="dependency" data-source-line="36" id="lnk15"><path d="M94.67,366.71 C94.67,356.37 94.67,348.69 94.67,338.35" fill="none" id="tools-to-core" style="stroke:#181818;stroke-width:1;stroke-dasharray:7,7;"/><polygon fill="#181818" points="94.67,333.35,90.67,342.35,94.67,338.35,98.67,342.35,94.67,333.35" style="stroke:#181818;stroke-width:1;stroke-linejoin:miter;stroke-miterlimit:10;"/><text fill="#000000" font-family="sans-serif" font-size="13" lengthAdjust="spacing" textLength="45.5254" x="48.67" y="346.5251">tool SPI</text></g><!--link core to tools--><!--link providers to llm--><g class="link" data-entity-1="ent0008" data-entity-2="ent0006" data-link-type="dependency" data-source-line="37" id="lnk16"><path d="M250.33,294.71 C250.33,284.37 250.33,276.69 250.33,266.35" fill="none" id="providers-to-llm" style="stroke:#181818;stroke-width:1;stroke-dasharray:7,7;"/><polygon fill="#181818" points="250.33,261.35,246.33,270.35,250.33,266.35,254.33,270.35,250.33,261.35" style="stroke:#181818;stroke-width:1;stroke-linejoin:miter;stroke-miterlimit:10;"/><text fill="#000000" font-family="sans-serif" font-size="13" lengthAdjust="spacing" textLength="49.8545" x="200.33" y="274.5251">LLM SPI</text></g><!--link llm to providers--><?plantuml-src hLDBRjim4Dth5BDhWa1EcXHfOQ05t2G53DYn4GNT25dGqbXYJN48ahAhNG_H4_Oa7LAouo1eLo4WY7ppUvnvVFVvJLVo3cwbgAne0CQmo3AOKzagXCKMxLRY3auUxYQtypieg352IzAd7FCThUDjYDbUXHp28uGrXikBo-lquZfz_v7nILjAr0KoFgGvXv8A1nP5oJdWpw_V8A2or1eiGTYYbXuBtre4iXpgXUSw8qxrs9bzYMmwNywctwPtjp2VJEyV-UFjpMA-dDnF5_T0Qo3dqYRU92tHe2wPHJSoRQD2hgErq0YoH366cdRWQunDw4CTAD6XXLN7V9qXxUHAAkaxE45Hr8FNoto6fFOEFC6k5XwaXxw-0sxNUIoGBQS1Dwgj7B0tdGPE6RMsm7W_I-H3XmfFbXCsev-DWhEXN2hrcaO_n5R0YP9R11S3J-7i9P7_Tk2DHUGsKXiHH1HKGfhdblcELMHvba9NtAHd5oEAZQZmtmvAQlHXscHzJKS6LukITb9Ni1RA7OTeAj6XWSjFHw0LUXF0gmz9pIC6R0oFhi5cnSfBF9amfHLvJmsKCZ1XgIL9dXaRQdmDKyYyi1xj4mW7hjydUR0uRuM9y6f_IlA7LdlPO8Hjlq_o6z9hMS6CWkAZgOX8i5WS0CkEizaS9ijfH9HgaloHI3aMpVnc6K4Vpac-jBILuVL4qEnFIJ8GvE6dwPSZNeTTnFV4Xl_WFN3gVt00xMk_Lr3W6gb5tOr6lHFhE811xSc1OxIoVr1vk6umicndegFMfwHL5wV6xH_31dbsX_VI68KDwueuIJyizbsXwX-jjC5hbCJ2QSxZPha_CRU-PR7YCVpSjBy0?></g></svg>